<mxfile host="app.diagrams.net" modified="2024-01-14T00:09:42.625Z" agent="Mozilla/5.0 (Macintosh; Intel Mac OS X 10_15_7) AppleWebKit/537.36 (KHTML, like Gecko) Chrome/120.0.0.0 Safari/537.36" version="22.1.16" etag="nXPA-Jv7QhEO6nt94_S7" type="github">
  <diagram name="Page-1" id="bI1r3yJp96PqOxp8WVGx">
    <mxGraphModel>
      <root>
        <mxCell id="0" />
        <mxCell id="1" parent="0" />
      </root>
    </mxGraphModel>
  </diagram>
</mxfile>
